mtllib models/block/solar_mirror.mtl
usemtl None

# Pied
v 0.75 0.0625 0.75
v 0.25 0.0625 0.75
v 0.25 0 0.75
v 0.75 0 0.75
v 0.25 0.0625 0.25
v 0.75 0.0625 0.25
v 0.75 0 0.25
v 0.25 0 0.25
v 0.75 0.0625 0.25
v 0.75 0.0625 0.75
v 0.75 0 0.75
v 0.75 0 0.25
v 0.75 0 0.75
v 0.25 0 0.75
v 0.25 0 0.25
v 0.75 0 0.25
v 0.25 0.0625 0.75
v 0.25 0.0625 0.25
v 0.25 0 0.25
v 0.25 0 0.75
v 0.75 0.0625 0.25
v 0.25 0.0625 0.25
v 0.25 0.0625 0.75
v 0.75 0.0625 0.75
vn 0 0 1
vn 0 0 1
vn 0 0 1
vn 0 0 1
vn 0 0 -1
vn 0 0 -1
vn 0 0 -1
vn 0 0 -1
vn 1 0 0
vn 1 0 0
vn 1 0 0
vn 1 0 0
vn 0 -1 0
vn 0 -1 0
vn 0 -1 0
vn 0 -1 0
vn -1 0 0
vn -1 0 0
vn -1 0 0
vn -1 0 0
vn 0 1 0
vn 0 1 0
vn 0 1 0
vn 0 1 0
vt 0.25 0.875
vt 0.125 0.875
vt 0.125 0.859375
vt 0.25 0.859375
vt 0.5 0.875
vt 0.375 0.875
vt 0.375 0.859375
vt 0.5 0.859375
vt 0.375 0.875
vt 0.25 0.875
vt 0.25 0.859375
vt 0.375 0.859375
vt 0.375 1
vt 0.25 1
vt 0.25 0.875
vt 0.375 0.875
vt 0.125 0.875
vt 0 0.875
vt 0 0.859375
vt 0.125 0.859375
vt 0.25 1
vt 0.125 1
vt 0.125 0.875
vt 0.25 0.875
f 1/1/1 3/3/3 4/4/4
f 1/1/1 2/2/2 3/3/3
f 5/5/5 7/7/7 8/8/8
f 5/5/5 6/6/6 7/7/7
f 9/9/9 11/11/11 12/12/12
f 9/9/9 10/10/10 11/11/11
f 13/13/13 15/15/15 16/16/16
f 13/13/13 14/14/14 15/15/15
f 17/17/17 19/19/19 20/20/20
f 17/17/17 18/18/18 19/19/19
f 21/21/21 23/23/23 24/24/24
f 21/21/21 22/22/22 23/23/23

# Pied1
v 0.546875 0.53125 0.546875
v 0.453125 0.53125 0.546875
v 0.453125 0.09375 0.546875
v 0.546875 0.09375 0.546875
v 0.453125 0.53125 0.453125
v 0.546875 0.53125 0.453125
v 0.546875 0.09375 0.453125
v 0.453125 0.09375 0.453125
v 0.546875 0.53125 0.453125
v 0.546875 0.53125 0.546875
v 0.546875 0.09375 0.546875
v 0.546875 0.09375 0.453125
v 0.546875 0.09375 0.546875
v 0.453125 0.09375 0.546875
v 0.453125 0.09375 0.453125
v 0.546875 0.09375 0.453125
v 0.453125 0.53125 0.546875
v 0.453125 0.53125 0.453125
v 0.453125 0.09375 0.453125
v 0.453125 0.09375 0.546875
v 0.546875 0.53125 0.453125
v 0.453125 0.53125 0.453125
v 0.453125 0.53125 0.546875
v 0.546875 0.53125 0.546875
vn -1.889618E-08 0 1
vn -1.889618E-08 0 1
vn -1.889618E-08 0 1
vn -1.889618E-08 0 1
vn 1.889618E-08 0 -1
vn 1.889618E-08 0 -1
vn 1.889618E-08 0 -1
vn 1.889618E-08 0 -1
vn 1 0 1.889618E-08
vn 1 0 1.889618E-08
vn 1 0 1.889618E-08
vn 1 0 1.889618E-08
vn 0 -1 0
vn 0 -1 0
vn 0 -1 0
vn 0 -1 0
vn -1 0 -1.889618E-08
vn -1 0 -1.889618E-08
vn -1 0 -1.889618E-08
vn -1 0 -1.889618E-08
vn 0 1 0
vn 0 1 0
vn 0 1 0
vn 0 1 0
vt 0.90625 0.75
vt 0.875 0.75
vt 0.875 0.640625
vt 0.90625 0.640625
vt 0.96875 0.75
vt 0.9375 0.75
vt 0.9375 0.640625
vt 0.96875 0.640625
vt 0.9375 0.75
vt 0.90625 0.75
vt 0.90625 0.640625
vt 0.9375 0.640625
vt 0.9375 0.78125
vt 0.90625 0.78125
vt 0.90625 0.75
vt 0.9375 0.75
vt 0.875 0.75
vt 0.84375 0.75
vt 0.84375 0.640625
vt 0.875 0.640625
vt 0.90625 0.78125
vt 0.875 0.78125
vt 0.875 0.75
vt 0.90625 0.75
f 25/25/25 27/27/27 28/28/28
f 25/25/25 26/26/26 27/27/27
f 29/29/29 31/31/31 32/32/32
f 29/29/29 30/30/30 31/31/31
f 33/33/33 35/35/35 36/36/36
f 33/33/33 34/34/34 35/35/35
f 37/37/37 39/39/39 40/40/40
f 37/37/37 38/38/38 39/39/39
f 41/41/41 43/43/43 44/44/44
f 41/41/41 42/42/42 43/43/43
f 45/45/45 47/47/47 48/48/48
f 45/45/45 46/46/46 47/47/47

# Pied2
v 0.625 0.09375 0.625
v 0.375 0.09375 0.625
v 0.375 0.03125 0.625
v 0.625 0.03125 0.625
v 0.375 0.09375 0.375
v 0.625 0.09375 0.375
v 0.625 0.03125 0.375
v 0.375 0.03125 0.375
v 0.625 0.09375 0.375
v 0.625 0.09375 0.625
v 0.625 0.03125 0.625
v 0.625 0.03125 0.375
v 0.625 0.03125 0.625
v 0.375 0.03125 0.625
v 0.375 0.03125 0.375
v 0.625 0.03125 0.375
v 0.375 0.09375 0.625
v 0.375 0.09375 0.375
v 0.375 0.03125 0.375
v 0.375 0.03125 0.625
v 0.625 0.09375 0.375
v 0.375 0.09375 0.375
v 0.375 0.09375 0.625
v 0.625 0.09375 0.625
vn -5.506753E-08 0 1
vn -5.506753E-08 0 1
vn -5.506753E-08 0 1
vn -5.506753E-08 0 1
vn 5.506753E-08 0 -1
vn 5.506753E-08 0 -1
vn 5.506753E-08 0 -1
vn 5.506753E-08 0 -1
vn 1 0 5.506753E-08
vn 1 0 5.506753E-08
vn 1 0 5.506753E-08
vn 1 0 5.506753E-08
vn 0 -1 0
vn 0 -1 0
vn 0 -1 0
vn 0 -1 0
vn -1 0 -5.506753E-08
vn -1 0 -5.506753E-08
vn -1 0 -5.506753E-08
vn -1 0 -5.506753E-08
vn 0 1 0
vn 0 1 0
vn 0 1 0
vn 0 1 0
vt 0.625 0.921875
vt 0.5625 0.921875
vt 0.5625 0.90625
vt 0.625 0.90625
vt 0.75 0.921875
vt 0.6875 0.921875
vt 0.6875 0.90625
vt 0.75 0.90625
vt 0.6875 0.921875
vt 0.625 0.921875
vt 0.625 0.90625
vt 0.6875 0.90625
vt 0.6875 0.984375
vt 0.625 0.984375
vt 0.625 0.921875
vt 0.6875 0.921875
vt 0.5625 0.921875
vt 0.5 0.921875
vt 0.5 0.90625
vt 0.5625 0.90625
vt 0.625 0.984375
vt 0.5625 0.984375
vt 0.5625 0.921875
vt 0.625 0.921875
f 49/49/49 51/51/51 52/52/52
f 49/49/49 50/50/50 51/51/51
f 53/53/53 55/55/55 56/56/56
f 53/53/53 54/54/54 55/55/55
f 57/57/57 59/59/59 60/60/60
f 57/57/57 58/58/58 59/59/59
f 61/61/61 63/63/63 64/64/64
f 61/61/61 62/62/62 63/63/63
f 65/65/65 67/67/67 68/68/68
f 65/65/65 66/66/66 67/67/67
f 69/69/69 71/71/71 72/72/72
f 69/69/69 70/70/70 71/71/71

# Axe rotation
v 0.46875 0.53125 0.59375
v 0.46875 0.46875 0.59375
v 0.53125 0.46875 0.59375
v 0.53125 0.53125 0.59375
v 0.46875 0.46875 0.40625
v 0.46875 0.53125 0.40625
v 0.53125 0.53125 0.40625
v 0.53125 0.46875 0.40625
v 0.46875 0.53125 0.40625
v 0.46875 0.53125 0.59375
v 0.53125 0.53125 0.59375
v 0.53125 0.53125 0.40625
v 0.53125 0.53125 0.59375
v 0.53125 0.46875 0.59375
v 0.53125 0.46875 0.40625
v 0.53125 0.53125 0.40625
v 0.46875 0.46875 0.59375
v 0.46875 0.46875 0.40625
v 0.53125 0.46875 0.40625
v 0.53125 0.46875 0.59375
v 0.46875 0.53125 0.40625
v 0.46875 0.46875 0.40625
v 0.46875 0.46875 0.59375
v 0.46875 0.53125 0.59375
vn 0 0 1
vn 0 0 1
vn 0 0 1
vn 0 0 1
vn 0 0 -1
vn 0 0 -1
vn 0 0 -1
vn 0 0 -1
vn 5.960465E-08 1 0
vn 5.960465E-08 1 0
vn 5.960465E-08 1 0
vn 5.960465E-08 1 0
vn 1 -5.960465E-08 0
vn 1 -5.960465E-08 0
vn 1 -5.960465E-08 0
vn 1 -5.960465E-08 0
vn -5.960465E-08 -1 0
vn -5.960465E-08 -1 0
vn -5.960465E-08 -1 0
vn -5.960465E-08 -1 0
vn -1 5.960465E-08 0
vn -1 5.960465E-08 0
vn -1 5.960465E-08 0
vn -1 5.960465E-08 0
vt 0.59375 0.828125
vt 0.578125 0.828125
vt 0.578125 0.8125
vt 0.59375 0.8125
vt 0.65625 0.828125
vt 0.640625 0.828125
vt 0.640625 0.8125
vt 0.65625 0.8125
vt 0.640625 0.828125
vt 0.59375 0.828125
vt 0.59375 0.8125
vt 0.640625 0.8125
vt 0.609375 0.875
vt 0.59375 0.875
vt 0.59375 0.828125
vt 0.609375 0.828125
vt 0.578125 0.828125
vt 0.53125 0.828125
vt 0.53125 0.8125
vt 0.578125 0.8125
vt 0.59375 0.875
vt 0.578125 0.875
vt 0.578125 0.828125
vt 0.59375 0.828125
f 73/73/73 75/75/75 76/76/76
f 73/73/73 74/74/74 75/75/75
f 77/77/77 79/79/79 80/80/80
f 77/77/77 78/78/78 79/79/79
f 81/81/81 83/83/83 84/84/84
f 81/81/81 82/82/82 83/83/83
f 85/85/85 87/87/87 88/88/88
f 85/85/85 86/86/86 87/87/87
f 89/89/89 91/91/91 92/92/92
f 89/89/89 90/90/90 91/91/91
f 93/93/93 95/95/95 96/96/96
f 93/93/93 94/94/94 95/95/95

# Mirror Support
v 0.4911612 0.6679378 0.584375
v 0.3320621 0.5088388 0.584375
v 0.4204504 0.4204505 0.584375
v 0.5795496 0.5795495 0.584375
v 0.3320621 0.5088388 0.415625
v 0.4911612 0.6679378 0.415625
v 0.5795496 0.5795495 0.415625
v 0.4204504 0.4204505 0.415625
v 0.4911612 0.6679378 0.415625
v 0.4911612 0.6679378 0.584375
v 0.5795496 0.5795495 0.584375
v 0.5795496 0.5795495 0.415625
v 0.5795496 0.5795495 0.584375
v 0.4204504 0.4204505 0.584375
v 0.4204504 0.4204505 0.415625
v 0.5795496 0.5795495 0.415625
v 0.3320621 0.5088388 0.584375
v 0.3320621 0.5088388 0.415625
v 0.4204504 0.4204505 0.415625
v 0.4204504 0.4204505 0.584375
v 0.4911612 0.6679378 0.415625
v 0.3320621 0.5088388 0.415625
v 0.3320621 0.5088388 0.584375
v 0.4911612 0.6679378 0.584375
vn 0 0 1
vn 0 0 1
vn 0 0 1
vn 0 0 1
vn 0 0 -1
vn 0 0 -1
vn 0 0 -1
vn 0 0 -1
vn 0.707107 0.7071066 0
vn 0.707107 0.7071066 0
vn 0.707107 0.7071066 0
vn 0.707107 0.7071066 0
vn 0.7071066 -0.707107 0
vn 0.7071066 -0.707107 0
vn 0.7071066 -0.707107 0
vn 0.7071066 -0.707107 0
vn -0.707107 -0.7071066 0
vn -0.707107 -0.7071066 0
vn -0.707107 -0.7071066 0
vn -0.707107 -0.7071066 0
vn -0.7071066 0.707107 0
vn -0.7071066 0.707107 0
vn -0.7071066 0.707107 0
vn -0.7071066 0.707107 0
vt 0.203125 0.765625
vt 0.140625 0.765625
vt 0.140625 0.734375
vt 0.203125 0.734375
vt 0.3125 0.765625
vt 0.25 0.765625
vt 0.25 0.734375
vt 0.3125 0.734375
vt 0.25 0.765625
vt 0.203125 0.765625
vt 0.203125 0.734375
vt 0.25 0.734375
vt 0.265625 0.8125
vt 0.203125 0.8125
vt 0.203125 0.765625
vt 0.265625 0.765625
vt 0.140625 0.765625
vt 0.09375 0.765625
vt 0.09375 0.734375
vt 0.140625 0.734375
vt 0.203125 0.8125
vt 0.140625 0.8125
vt 0.140625 0.765625
vt 0.203125 0.765625
f 97/97/97 99/99/99 100/100/100
f 97/97/97 98/98/98 99/99/99
f 101/101/101 103/103/103 104/104/104
f 101/101/101 102/102/102 103/103/103
f 105/105/105 107/107/107 108/108/108
f 105/105/105 106/106/106 107/107/107
f 109/109/109 111/111/111 112/112/112
f 109/109/109 110/110/110 111/111/111
f 113/113/113 115/115/115 116/116/116
f 113/113/113 114/114/114 115/115/115
f 117/117/117 119/119/119 120/120/120
f 117/117/117 118/118/118 119/119/119

# Mirror Support1
v 0.4203125 0.5796875 0.5842813
v 0.4203125 0.4203125 0.5842813
v 0.5796875 0.4203125 0.5842813
v 0.5796875 0.5796875 0.5842813
v 0.4203125 0.4203125 0.4157188
v 0.4203125 0.5796875 0.4157188
v 0.5796875 0.5796875 0.4157188
v 0.5796875 0.4203125 0.4157188
v 0.4203125 0.5796875 0.4157188
v 0.4203125 0.5796875 0.5842813
v 0.5796875 0.5796875 0.5842813
v 0.5796875 0.5796875 0.4157188
v 0.5796875 0.5796875 0.5842813
v 0.5796875 0.4203125 0.5842813
v 0.5796875 0.4203125 0.4157188
v 0.5796875 0.5796875 0.4157188
v 0.4203125 0.4203125 0.5842813
v 0.4203125 0.4203125 0.4157188
v 0.5796875 0.4203125 0.4157188
v 0.5796875 0.4203125 0.5842813
v 0.4203125 0.5796875 0.4157188
v 0.4203125 0.4203125 0.4157188
v 0.4203125 0.4203125 0.5842813
v 0.4203125 0.5796875 0.5842813
vn 0 0 0.9999999
vn 0 0 0.9999999
vn 0 0 0.9999999
vn 0 0 0.9999999
vn 0 0 -0.9999999
vn 0 0 -0.9999999
vn 0 0 -0.9999999
vn 0 0 -0.9999999
vn 2.107343E-07 1 0
vn 2.107343E-07 1 0
vn 2.107343E-07 1 0
vn 2.107343E-07 1 0
vn 1 -2.107343E-07 0
vn 1 -2.107343E-07 0
vn 1 -2.107343E-07 0
vn 1 -2.107343E-07 0
vn -2.107343E-07 -1 0
vn -2.107343E-07 -1 0
vn -2.107343E-07 -1 0
vn -2.107343E-07 -1 0
vn -1 2.107343E-07 0
vn -1 2.107343E-07 0
vn -1 2.107343E-07 0
vn -1 2.107343E-07 0
vt 0.1875 0.640625
vt 0.15625 0.640625
vt 0.15625 0.609375
vt 0.1875 0.609375
vt 0.265625 0.640625
vt 0.234375 0.640625
vt 0.234375 0.609375
vt 0.265625 0.609375
vt 0.234375 0.640625
vt 0.1875 0.640625
vt 0.1875 0.609375
vt 0.234375 0.609375
vt 0.21875 0.6875
vt 0.1875 0.6875
vt 0.1875 0.640625
vt 0.21875 0.640625
vt 0.15625 0.640625
vt 0.109375 0.640625
vt 0.109375 0.609375
vt 0.15625 0.609375
vt 0.1875 0.6875
vt 0.15625 0.6875
vt 0.15625 0.640625
vt 0.1875 0.640625
f 121/121/121 123/123/123 124/124/124
f 121/121/121 122/122/122 123/123/123
f 125/125/125 127/127/127 128/128/128
f 125/125/125 126/126/126 127/127/127
f 129/129/129 131/131/131 132/132/132
f 129/129/129 130/130/130 131/131/131
f 133/133/133 135/135/135 136/136/136
f 133/133/133 134/134/134 135/135/135
f 137/137/137 139/139/139 140/140/140
f 137/137/137 138/138/138 139/139/139
f 141/141/141 143/143/143 144/144/144
f 141/141/141 142/142/142 143/143/143

# Mirror
v 0.6409795 0.8398531 0.84
v 0.1601468 0.3590206 0.84
v 0.1822438 0.3369235 0.84
v 0.6630766 0.817756 0.84
v 0.1601468 0.3590206 0.16
v 0.6409795 0.8398531 0.16
v 0.6630766 0.817756 0.16
v 0.1822438 0.3369235 0.16
v 0.6409795 0.8398531 0.16
v 0.6409795 0.8398531 0.84
v 0.6630766 0.817756 0.84
v 0.6630766 0.817756 0.16
v 0.6630766 0.817756 0.84
v 0.1822438 0.3369235 0.84
v 0.1822438 0.3369235 0.16
v 0.6630766 0.817756 0.16
v 0.1601468 0.3590206 0.84
v 0.1601468 0.3590206 0.16
v 0.1822438 0.3369235 0.16
v 0.1822438 0.3369235 0.84
v 0.6409795 0.8398531 0.16
v 0.1601468 0.3590206 0.16
v 0.1601468 0.3590206 0.84
v 0.6409795 0.8398531 0.84
vn 0 0 1
vn 0 0 1
vn 0 0 1
vn 0 0 1
vn 0 0 -1
vn 0 0 -1
vn 0 0 -1
vn 0 0 -1
vn 0.707107 0.7071066 0
vn 0.707107 0.7071066 0
vn 0.707107 0.7071066 0
vn 0.707107 0.7071066 0
vn 0.7071066 -0.707107 0
vn 0.7071066 -0.707107 0
vn 0.7071066 -0.707107 0
vn 0.7071066 -0.707107 0
vn -0.707107 -0.7071066 0
vn -0.707107 -0.7071066 0
vn -0.707107 -0.7071066 0
vn -0.707107 -0.7071066 0
vn -0.7071066 0.707107 0
vn -0.7071066 0.707107 0
vn -0.7071066 0.707107 0
vn -0.7071066 0.707107 0
vt 0.5 0.515625
vt 0 0.515625
vt 0 0.5
vt 0.5 0.5
vt 1 0.515625
vt 0.5 0.515625
vt 0.5 0.5
vt 1 0.5
vt 1 0.53125
vt 0.5 0.53125
vt 0.5 0.515625
vt 1 0.515625
vt 1 0.5
vt 0.5 0.5
vt 0.5 0
vt 1 0
vt 0.5 0.53125
vt 0 0.53125
vt 0 0.515625
vt 0.5 0.515625
vt 0.5 0.5
vt 0 0.5
vt 0 0
vt 0.5 0
f 145/145/145 147/147/147 148/148/148
f 145/145/145 146/146/146 147/147/147
f 149/149/149 151/151/151 152/152/152
f 149/149/149 150/150/150 151/151/151
f 153/153/153 155/155/155 156/156/156
f 153/153/153 154/154/154 155/155/155
f 157/157/157 159/159/159 160/160/160
f 157/157/157 158/158/158 159/159/159
f 161/161/161 163/163/163 164/164/164
f 161/161/161 162/162/162 163/163/163
f 165/165/165 167/167/167 168/168/168
f 165/165/165 166/166/166 167/167/167

# Boulon1
v 0.484375 0.6040133 0.59375
v 0.484375 0.5727633 0.59375
v 0.515625 0.5727633 0.59375
v 0.515625 0.6040133 0.59375
v 0.484375 0.5727633 0.40625
v 0.484375 0.6040133 0.40625
v 0.515625 0.6040133 0.40625
v 0.515625 0.5727633 0.40625
v 0.484375 0.6040133 0.40625
v 0.484375 0.6040133 0.59375
v 0.515625 0.6040133 0.59375
v 0.515625 0.6040133 0.40625
v 0.515625 0.6040133 0.59375
v 0.515625 0.5727633 0.59375
v 0.515625 0.5727633 0.40625
v 0.515625 0.6040133 0.40625
v 0.484375 0.5727633 0.59375
v 0.484375 0.5727633 0.40625
v 0.515625 0.5727633 0.40625
v 0.515625 0.5727633 0.59375
v 0.484375 0.6040133 0.40625
v 0.484375 0.5727633 0.40625
v 0.484375 0.5727633 0.59375
v 0.484375 0.6040133 0.59375
vn 0 0 1
vn 0 0 1
vn 0 0 1
vn 0 0 1
vn 0 0 -1
vn 0 0 -1
vn 0 0 -1
vn 0 0 -1
vn 2.107342E-07 1 0
vn 2.107342E-07 1 0
vn 2.107342E-07 1 0
vn 2.107342E-07 1 0
vn 1 -2.107342E-07 0
vn 1 -2.107342E-07 0
vn 1 -2.107342E-07 0
vn 1 -2.107342E-07 0
vn -2.107342E-07 -1 0
vn -2.107342E-07 -1 0
vn -2.107342E-07 -1 0
vn -2.107342E-07 -1 0
vn -1 2.107342E-07 0
vn -1 2.107342E-07 0
vn -1 2.107342E-07 0
vn -1 2.107342E-07 0
vt 0.75 0.828125
vt 0.734375 0.828125
vt 0.734375 0.8125
vt 0.75 0.8125
vt 0.8125 0.828125
vt 0.796875 0.828125
vt 0.796875 0.8125
vt 0.8125 0.8125
vt 0.796875 0.828125
vt 0.75 0.828125
vt 0.75 0.8125
vt 0.796875 0.8125
vt 0.765625 0.875
vt 0.75 0.875
vt 0.75 0.828125
vt 0.765625 0.828125
vt 0.734375 0.828125
vt 0.6875 0.828125
vt 0.6875 0.8125
vt 0.734375 0.8125
vt 0.75 0.875
vt 0.734375 0.875
vt 0.734375 0.828125
vt 0.75 0.828125
f 169/169/169 171/171/171 172/172/172
f 169/169/169 170/170/170 171/171/171
f 173/173/173 175/175/175 176/176/176
f 173/173/173 174/174/174 175/175/175
f 177/177/177 179/179/179 180/180/180
f 177/177/177 178/178/178 179/179/179
f 181/181/181 183/183/183 184/184/184
f 181/181/181 182/182/182 183/183/183
f 185/185/185 187/187/187 188/188/188
f 185/185/185 186/186/186 187/187/187
f 189/189/189 191/191/191 192/192/192
f 189/189/189 190/190/190 191/191/191

# Boulon2
v 0.3959866 0.515625 0.59375
v 0.3959866 0.484375 0.59375
v 0.4272366 0.484375 0.59375
v 0.4272366 0.515625 0.59375
v 0.3959866 0.484375 0.40625
v 0.3959866 0.515625 0.40625
v 0.4272366 0.515625 0.40625
v 0.4272366 0.484375 0.40625
v 0.3959866 0.515625 0.40625
v 0.3959866 0.515625 0.59375
v 0.4272366 0.515625 0.59375
v 0.4272366 0.515625 0.40625
v 0.4272366 0.515625 0.59375
v 0.4272366 0.484375 0.59375
v 0.4272366 0.484375 0.40625
v 0.4272366 0.515625 0.40625
v 0.3959866 0.484375 0.59375
v 0.3959866 0.484375 0.40625
v 0.4272366 0.484375 0.40625
v 0.4272366 0.484375 0.59375
v 0.3959866 0.515625 0.40625
v 0.3959866 0.484375 0.40625
v 0.3959866 0.484375 0.59375
v 0.3959866 0.515625 0.59375
vn 0 0 1
vn 0 0 1
vn 0 0 1
vn 0 0 1
vn 0 0 -1
vn 0 0 -1
vn 0 0 -1
vn 0 0 -1
vn 2.107342E-07 1 0
vn 2.107342E-07 1 0
vn 2.107342E-07 1 0
vn 2.107342E-07 1 0
vn 1 -2.107342E-07 0
vn 1 -2.107342E-07 0
vn 1 -2.107342E-07 0
vn 1 -2.107342E-07 0
vn -2.107342E-07 -1 0
vn -2.107342E-07 -1 0
vn -2.107342E-07 -1 0
vn -2.107342E-07 -1 0
vn -1 2.107342E-07 0
vn -1 2.107342E-07 0
vn -1 2.107342E-07 0
vn -1 2.107342E-07 0
vt 0.75 0.828125
vt 0.734375 0.828125
vt 0.734375 0.8125
vt 0.75 0.8125
vt 0.8125 0.828125
vt 0.796875 0.828125
vt 0.796875 0.8125
vt 0.8125 0.8125
vt 0.796875 0.828125
vt 0.75 0.828125
vt 0.75 0.8125
vt 0.796875 0.8125
vt 0.765625 0.875
vt 0.75 0.875
vt 0.75 0.828125
vt 0.765625 0.828125
vt 0.734375 0.828125
vt 0.6875 0.828125
vt 0.6875 0.8125
vt 0.734375 0.8125
vt 0.75 0.875
vt 0.734375 0.875
vt 0.734375 0.828125
vt 0.75 0.828125
f 193/193/193 195/195/195 196/196/196
f 193/193/193 194/194/194 195/195/195
f 197/197/197 199/199/199 200/200/200
f 197/197/197 198/198/198 199/199/199
f 201/201/201 203/203/203 204/204/204
f 201/201/201 202/202/202 203/203/203
f 205/205/205 207/207/207 208/208/208
f 205/205/205 206/206/206 207/207/207
f 209/209/209 211/211/211 212/212/212
f 209/209/209 210/210/210 211/211/211
f 213/213/213 215/215/215 216/216/216
f 213/213/213 214/214/214 215/215/215

